<?xml version="1.0" encoding="UTF-8"?>
<svg width="24px" height="25px" viewBox="0 0 24 25" version="1.1" xmlns="http://www.w3.org/2000/svg" xmlns:xlink="http://www.w3.org/1999/xlink">
    <!-- Generator: Sketch 46.2 (44496) - http://www.bohemiancoding.com/sketch -->
    <title>Shape</title>
    <desc>Created with Sketch.</desc>
    <defs></defs>
    <g id="Page-1" stroke="none" stroke-width="1" fill="none" fill-rule="evenodd">
        <g id="iPhone-7" transform="translate(-124.000000, -405.000000)" fill-rule="nonzero" fill="#FFFFFF">
            <g id="alert-picker" transform="translate(-8.000000, 0.000000)">
                <g id="alert-option-copy" transform="translate(67.000000, 393.000000)">
                    <g id="alert-button" transform="translate(45.000000, 0.000000)">
                        <g id="iconmonstr-rss-feed-5" transform="translate(20.000000, 12.000000)">
                            <path d="M6.504,21.0837333 C6.504,22.8789333 5.0472,24.3333333 3.2544,24.3333333 C1.4568,24.3333333 0,22.8789333 0,21.0837333 C0,19.2909333 1.4568,17.8365333 3.252,17.8365333 C5.0472,17.8389333 6.504,19.2909333 6.504,21.0837333 L6.504,21.0837333 Z M4.26325641e-15,8.51493333 L4.26325641e-15,13.3245333 C6.0504,13.3845333 10.9608,18.2877333 11.0208,24.3333333 L15.84,24.3333333 C15.7776,15.6237333 8.724,8.57493333 0,8.51493333 L4.26325641e-15,8.51493333 Z M0,5.14533333 C10.5768,5.19333333 19.152,13.7397333 19.1832,24.3333333 L24,24.3333333 C23.9712,11.1021333 13.248,0.378933333 0,0.333333333 L0,5.14533333 Z" id="Shape"></path>
                        </g>
                    </g>
                </g>
            </g>
        </g>
    </g>
</svg>