<?xml version="1.0" encoding="UTF-8"?>
<svg width="30px" height="24px" viewBox="0 0 30 24" version="1.1" xmlns="http://www.w3.org/2000/svg" xmlns:xlink="http://www.w3.org/1999/xlink">
    <!-- Generator: Sketch 46.2 (44496) - http://www.bohemiancoding.com/sketch -->
    <title>Shape</title>
    <desc>Created with Sketch.</desc>
    <defs></defs>
    <g id="Page-1" stroke="none" stroke-width="1" fill="none" fill-rule="evenodd">
        <g id="iPhone-7" transform="translate(-120.000000, -258.000000)" fill-rule="nonzero" fill="#FFFFFF">
            <g id="alert-picker" transform="translate(-8.000000, 0.000000)">
                <g id="alert-option" transform="translate(67.000000, 245.000000)">
                    <g id="alert-button" transform="translate(45.000000, 0.000000)">
                        <g id="Twitter_Logo_Blue" transform="translate(7.000000, 1.000000)">
                            <path d="M18.4344,36 C29.7552,36 35.9472,26.7657632 35.9472,18.7578747 C35.9472,18.4955921 35.9472,18.234491 35.9292,17.9745713 C37.1337976,17.1167311 38.1736266,16.0545677 39,14.8378136 C37.8766549,15.3278824 36.6849951,15.6492693 35.4648,15.7912461 C36.7496928,15.0339136 37.7113482,13.8427607 38.1708,12.4394639 C36.962589,13.1453293 35.6407753,13.642788 34.2624,13.9103729 C32.3544993,11.9130017 29.3228632,11.4241381 26.8674591,12.7179087 C24.412055,14.0116793 23.14353,16.7663297 23.7732,19.4372102 C18.8242749,19.1929442 14.2133709,16.8915608 11.088,13.1058034 C9.45434731,15.8747096 10.2887855,19.4169594 12.9936,21.1952122 C12.0140894,21.16663 11.0559352,20.9064807 10.2,20.4367194 C10.2,20.4615299 10.2,20.4875219 10.2,20.5135139 C10.2008018,23.3981412 12.2661018,25.8826686 15.138,26.4538596 C14.2318435,26.6971681 13.2810967,26.7327349 12.3588,26.5578275 C13.1651375,29.0263824 15.4758895,30.7174682 18.1092,30.7661631 C15.929682,32.4526069 13.2372714,33.3681099 10.4652,33.3653598 C9.97548428,33.3644342 9.48624488,33.3352416 9,33.2779322 C11.8147631,35.0563458 15.0898961,35.9996656 18.4344,35.9952742" id="Shape"></path>
                        </g>
                    </g>
                </g>
            </g>
        </g>
    </g>
</svg>