<?xml version="1.0" encoding="UTF-8"?>
<svg width="318px" height="58px" viewBox="0 0 318 58" version="1.1" xmlns="http://www.w3.org/2000/svg" xmlns:xlink="http://www.w3.org/1999/xlink">
    <!-- Generator: Sketch 46.2 (44496) - http://www.bohemiancoding.com/sketch -->
    <title>header</title>
    <desc>Created with Sketch.</desc>
    <defs></defs>
    <g id="Page-1" stroke="none" stroke-width="1" fill="none" fill-rule="evenodd">
        <g id="iPhone-7" transform="translate(-33.000000, -57.000000)">
            <g id="header" transform="translate(32.000000, 57.000000)">
                <path d="M18.8092263,15.8300482 L0.998500003,16.7634688 L3.15836466,57.9761415 L163.054483,49.5963411 L299.6468,51.9805688 L299.813521,42.4291036 L318.497939,41.4498947 L316.338074,0.237222008 L162.333796,8.30824421 L18.9841955,5.80606762 L18.8092263,15.8300482 Z" id="Combined-Shape" fill="#EEC642"></path>
                <path d="M65.0098914,40.2518634 L61.2206235,40.2518634 C60.7995916,40.2518634 60.4612675,40.1539894 60.205641,39.9582384 C59.9500145,39.7624874 59.7971421,39.5039996 59.7470193,39.1827673 L59.0703643,35.2376519 L51.6271594,35.2376519 L50.0031874,39.1827673 C49.8929171,39.4638456 49.6773921,39.712295 49.356606,39.928123 C49.0358198,40.143951 48.6799529,40.2518634 48.2889947,40.2518634 L44.4395797,40.2518634 L54.9051769,18.3128057 L59.9274606,18.3128057 L65.0098914,40.2518634 Z M52.9955061,31.8948442 L58.4989667,31.8948442 L57.4313555,25.6308442 C57.3411344,25.1088416 57.2433963,24.579318 57.1381384,24.0422576 C57.0328804,23.5051973 56.9451667,23.0158272 56.8749947,22.5741326 C56.7947982,22.8150569 56.6895418,23.0886023 56.5592224,23.3947769 C56.428903,23.7009515 56.3010917,23.9995927 56.1757846,24.2907096 C56.0504775,24.5818264 55.9301845,24.8528622 55.8149019,25.1038249 C55.6996194,25.3547877 55.6169179,25.5404974 55.5667951,25.6609596 L52.9955061,31.8948442 Z M71.9713625,36.3368634 L79.3393835,36.3368634 L78.8582067,40.2518634 L66.5881961,40.2518634 L69.2948161,18.3128057 L74.1968056,18.3128057 L71.9713625,36.3368634 Z M100.014396,40.2518634 L96.2251279,40.2518634 C95.804096,40.2518634 95.4657719,40.1539894 95.2101454,39.9582384 C94.9545189,39.7624874 94.8016465,39.5039996 94.7515236,39.1827673 L94.0748687,35.2376519 L86.6316638,35.2376519 L85.0076918,39.1827673 C84.8974215,39.4638456 84.6818965,39.712295 84.3611103,39.928123 C84.0403241,40.143951 83.6844573,40.2518634 83.2934991,40.2518634 L79.4440841,40.2518634 L89.9096813,18.3128057 L94.931965,18.3128057 L100.014396,40.2518634 Z M88.0000105,31.8948442 L93.5034711,31.8948442 L92.4358599,25.6308442 C92.3456388,25.1088416 92.2479007,24.579318 92.1426427,24.0422576 C92.0373848,23.5051973 91.9496711,23.0158272 91.8794991,22.5741326 C91.7993026,22.8150569 91.6940462,23.0886023 91.5637268,23.3947769 C91.4334074,23.7009515 91.3055961,23.9995927 91.180289,24.2907096 C91.0549819,24.5818264 90.9346888,24.8528622 90.8194063,25.1038249 C90.7041238,25.3547877 90.6214223,25.5404974 90.5712995,25.6609596 L88.0000105,31.8948442 Z M113.411608,30.6149403 C113.622124,31.2473666 113.802563,31.8948409 113.952932,32.5573826 C114.113325,32.2261117 114.281234,31.899865 114.456664,31.5786326 C114.632094,31.2574003 114.815039,30.9361727 115.005506,30.6149403 L121.711909,19.0656903 C121.9124,18.7243809 122.163011,18.5135753 122.463748,18.4332673 C122.764485,18.3529592 123.055193,18.3128057 123.335881,18.3128057 L127.185296,18.3128057 L124.478676,40.2518634 L120.178158,40.2518634 L121.711909,27.4829403 C121.741983,27.2119005 121.789599,26.9132593 121.854758,26.5870076 C121.919918,26.260756 121.992595,25.9219613 122.072792,25.5706134 L115.486683,36.893998 C115.286192,37.2353074 115.025557,37.488776 114.704771,37.6544115 C114.383984,37.8200469 114.03313,37.9028634 113.652196,37.9028634 L112.990578,37.9028634 C112.609644,37.9028634 112.276332,37.8175373 111.990632,37.6468826 C111.704932,37.4762279 111.50695,37.2252689 111.39668,36.893998 L107.547264,25.540498 C107.527215,25.8818074 107.509673,26.2130733 107.494636,26.5343057 C107.479599,26.8555381 107.457044,27.1466506 107.42697,27.4076519 L105.923292,40.2518634 L101.592701,40.2518634 L104.29932,18.3128057 L108.028441,18.3128057 C108.238957,18.3128057 108.424409,18.3178249 108.584802,18.3278634 C108.745195,18.3379019 108.888043,18.3655074 109.01335,18.4106807 C109.138657,18.455854 109.24642,18.5286321 109.336641,18.6290173 C109.426862,18.7294024 109.502045,18.8749586 109.562193,19.0656903 L113.411608,30.6149403 Z M149.39406,27.8744403 C149.39406,29.0589847 149.256224,30.1933195 148.980548,31.2774788 C148.704873,32.3616381 148.31392,33.3704934 147.80768,34.3040749 C147.301439,35.2376565 146.689949,36.0858981 145.973193,36.8488249 C145.256436,37.6117518 144.451976,38.2617357 143.55979,38.7987961 C142.667603,39.3358565 141.700247,39.7524485 140.657692,40.0485846 C139.615137,40.3447207 138.517463,40.4927865 137.364637,40.4927865 C135.9211,40.4927865 134.625444,40.2393179 133.47763,39.732373 C132.329817,39.2254282 131.354943,38.5327813 130.552977,37.6544115 C129.751012,36.7760417 129.137016,35.7420905 128.710972,34.5525269 C128.284928,33.3629632 128.071909,32.0805626 128.071909,30.7052865 C128.071909,29.5207421 128.209745,28.3838977 128.48542,27.2947192 C128.761096,26.2055407 129.152048,25.1941758 129.658289,24.2605942 C130.16453,23.3270126 130.778525,22.4787711 131.500294,21.7158442 C132.222063,20.9529173 133.029029,20.3029334 133.921215,19.765873 C134.813402,19.2288126 135.780758,18.8122207 136.823313,18.5160846 C137.865869,18.2199485 138.968555,18.0718826 140.131405,18.0718826 C141.564918,18.0718826 142.855562,18.3253513 144.003375,18.8322961 C145.151188,19.3392409 146.123556,20.0343975 146.92051,20.9177865 C147.717463,21.8011755 148.328952,22.8401459 148.754997,24.0347288 C149.181041,25.2293117 149.39406,26.5092027 149.39406,27.8744403 L149.39406,27.8744403 Z M144.371776,27.9949019 C144.371776,27.0914358 144.264013,26.2707998 144.048485,25.5329692 C143.832957,24.7951386 143.517188,24.1627218 143.101168,23.6356999 C142.685149,23.1086781 142.176409,22.7021245 141.574935,22.4160269 C140.973461,22.1299293 140.291801,21.9868826 139.529933,21.9868826 C138.527477,21.9868826 137.630291,22.1951786 136.83835,22.6117769 C136.046409,23.0283751 135.372267,23.6131096 134.815904,24.365998 C134.25954,25.1188864 133.833502,26.0248485 133.537778,27.0839115 C133.242053,28.1429745 133.094193,29.3149531 133.094193,30.5998826 C133.094193,31.5033487 133.199449,32.3214751 133.409965,33.0542865 C133.620481,33.7870978 133.928732,34.4144954 134.334727,34.936498 C134.740722,35.4585006 135.244449,35.8625447 135.845923,36.1486423 C136.447397,36.4347398 137.13407,36.5777865 137.905961,36.5777865 C138.908418,36.5777865 139.80811,36.3720001 140.605063,35.9604211 C141.402016,35.5488421 142.078664,34.9666172 142.635028,34.2137288 C143.191392,33.4608404 143.619935,32.5573879 143.920673,31.5033442 C144.22141,30.4493004 144.371776,29.2798314 144.371776,27.9949019 L144.371776,27.9949019 Z M175.196056,40.2518634 L171.406788,40.2518634 C170.985756,40.2518634 170.647432,40.1539894 170.391806,39.9582384 C170.136179,39.7624874 169.983307,39.5039996 169.933184,39.1827673 L169.256529,35.2376519 L161.813324,35.2376519 L160.189352,39.1827673 C160.079082,39.4638456 159.863557,39.712295 159.542771,39.928123 C159.221984,40.143951 158.866118,40.2518634 158.475159,40.2518634 L154.625744,40.2518634 L165.091342,18.3128057 L170.113625,18.3128057 L175.196056,40.2518634 Z M163.181671,31.8948442 L168.685131,31.8948442 L167.61752,25.6308442 C167.527299,25.1088416 167.429561,24.579318 167.324303,24.0422576 C167.219045,23.5051973 167.131331,23.0158272 167.061159,22.5741326 C166.980963,22.8150569 166.875706,23.0886023 166.745387,23.3947769 C166.615068,23.7009515 166.487256,23.9995927 166.361949,24.2907096 C166.236642,24.5818264 166.116349,24.8528622 166.001067,25.1038249 C165.885784,25.3547877 165.803083,25.5404974 165.75296,25.6609596 L163.181671,31.8948442 Z M182.157527,36.3368634 L189.525548,36.3368634 L189.044371,40.2518634 L176.774361,40.2518634 L179.480981,18.3128057 L184.38297,18.3128057 L182.157527,36.3368634 Z M206.772175,22.0922865 L198.667352,22.0922865 L198.005734,27.3925942 L204.215923,27.3925942 L203.734746,31.0365557 L197.55463,31.0365557 L196.893012,36.4723826 L205.057983,36.4723826 L204.576806,40.2518634 L191.494809,40.2518634 L194.201429,18.3128057 L207.253352,18.3128057 L206.772175,22.0922865 Z M213.29758,32.0604788 L212.290116,40.2518634 L207.4182,40.2518634 L210.094746,18.3128057 L216.741002,18.3128057 C218.084294,18.3128057 219.229584,18.4558524 220.176905,18.7419499 C221.124227,19.0280475 221.898613,19.4220532 222.500088,19.9239788 C223.101562,20.4259044 223.54013,21.0206773 223.815806,21.7083153 C224.091481,22.3959534 224.229317,23.1413017 224.229317,23.9443826 C224.229317,24.7575021 224.121555,25.5254367 223.906026,26.2482096 C223.690498,26.9709824 223.377235,27.6360238 222.966228,28.2433538 C222.55522,28.8506838 222.051493,29.3877361 221.455032,29.8545269 C220.85857,30.3213177 220.179415,30.705285 219.417548,31.0064403 C219.718285,31.177095 220.001475,31.3828814 220.267126,31.6238057 C220.532777,31.86473 220.740784,32.1658808 220.891152,32.5272673 L224.078949,40.2518634 L219.658137,40.2518634 C219.247129,40.2518634 218.901287,40.1715565 218.620599,40.0109403 C218.339911,39.8503241 218.144435,39.6194418 218.034165,39.3182865 L215.658354,32.8284211 C215.548084,32.5473428 215.400223,32.3490851 215.214769,32.2336423 C215.029314,32.1181994 214.756149,32.0604788 214.395264,32.0604788 L213.29758,32.0604788 Z M214.545632,21.9718249 L213.718609,28.672498 L215.507986,28.672498 C216.209706,28.672498 216.806159,28.5645856 217.297363,28.3487576 C217.788566,28.1329296 218.187037,27.8443268 218.492786,27.4829403 C218.798536,27.1215539 219.019073,26.6999427 219.154405,26.2180942 C219.289736,25.7362456 219.357401,25.2293084 219.357401,24.6972673 C219.357401,24.2856883 219.297255,23.9117593 219.17696,23.5754692 C219.056665,23.239179 218.868707,22.9530857 218.613081,22.7171807 C218.357454,22.4812757 218.036673,22.2980756 217.650727,22.1675749 C217.264781,22.0370743 216.811176,21.9718249 216.289898,21.9718249 L214.545632,21.9718249 Z M242.79918,18.3128057 L242.28793,22.1976903 L236.724322,22.1976903 L234.498879,40.2518634 L229.626963,40.2518634 L231.822333,22.1976903 L226.228652,22.1976903 L226.709828,18.3128057 L242.79918,18.3128057 Z M255.775363,22.7096519 C255.604945,22.9505761 255.432024,23.1262475 255.256594,23.2366711 C255.081164,23.3470947 254.873157,23.4023057 254.632567,23.4023057 C254.402002,23.4023057 254.171441,23.327018 253.940876,23.1764403 C253.710311,23.0258627 253.452182,22.8602297 253.166482,22.6795365 C252.880781,22.4988433 252.552482,22.3332103 252.181573,22.1826326 C251.810664,22.032055 251.374601,21.9567673 250.873373,21.9567673 C250.412243,21.9567673 250.00876,22.0220166 249.662912,22.1525173 C249.317065,22.2830179 249.028863,22.4637084 248.798298,22.6945942 C248.567733,22.9254799 248.394811,23.1965157 248.279529,23.5077096 C248.164246,23.8189034 248.106606,24.1602077 248.106606,24.5316326 C248.106606,24.9331731 248.219381,25.2694582 248.444933,25.540498 C248.670486,25.8115378 248.971219,26.0499489 249.34714,26.2557384 C249.723061,26.4615279 250.146593,26.6497472 250.617748,26.8204019 C251.088903,26.9910566 251.572581,27.1767662 252.068797,27.3775365 C252.565013,27.5783067 253.051197,27.809189 253.527364,28.0701903 C254.003531,28.3311916 254.429569,28.6574384 254.80549,29.0489403 C255.181412,29.4404423 255.482144,29.9122453 255.707697,30.4643634 C255.93325,31.0164816 256.046025,31.6790134 256.046025,32.4519788 C256.046025,33.5562151 255.855561,34.5951855 255.474627,35.5689211 C255.093693,36.5426567 254.547363,37.3934078 253.835618,38.1211999 C253.123874,38.848992 252.259268,39.4261978 251.241774,39.8528346 C250.22428,40.2794713 249.078991,40.4927865 247.80587,40.4927865 C247.174323,40.4927865 246.540278,40.422518 245.903718,40.2819788 C245.267158,40.1414396 244.655668,39.943182 244.069231,39.6871999 C243.482794,39.4312179 242.938969,39.1275575 242.437741,38.7762096 C241.936512,38.4248616 241.510475,38.0333656 241.159615,37.6017096 L242.903881,35.3129403 C243.0342,35.1422856 243.204615,35.0017486 243.415131,34.8913249 C243.625647,34.7809013 243.83616,34.7256903 244.046676,34.7256903 C244.327364,34.7256903 244.600529,34.8235644 244.86618,35.0193153 C245.131831,35.2150663 245.425046,35.4308911 245.745832,35.6667961 C246.066618,35.9027011 246.440028,36.1185259 246.866072,36.3142769 C247.292116,36.5100278 247.815892,36.6079019 248.437415,36.6079019 C249.349651,36.6079019 250.053866,36.3594524 250.550082,35.8625461 C251.046298,35.3656398 251.294403,34.6303298 251.294403,33.6565942 C251.294403,33.2048611 251.181628,32.8334418 250.956075,32.5423249 C250.730523,32.2512081 250.434802,32.0052683 250.068905,31.804498 C249.703009,31.6037278 249.284489,31.4255469 248.813335,31.2699499 C248.34218,31.114353 247.861008,30.9462105 247.369804,30.7655173 C246.8786,30.584824 246.397428,30.3715089 245.926273,30.1255653 C245.455119,29.8796218 245.036599,29.5583942 244.670702,29.161873 C244.304806,28.7653518 244.009085,28.2784913 243.783532,27.7012769 C243.55798,27.1240624 243.445205,26.4138484 243.445205,25.5706134 C243.445205,24.5968778 243.628151,23.6608006 243.994047,22.7623538 C244.359944,21.863907 244.88372,21.0683669 245.565391,20.3757096 C246.247061,19.6830523 247.074076,19.1309424 248.046459,18.7193634 C249.018842,18.3077844 250.111504,18.101998 251.324476,18.101998 C251.946,18.101998 252.549971,18.1672474 253.136408,18.297748 C253.722845,18.4282487 254.271682,18.6089392 254.782935,18.8398249 C255.294188,19.0707107 255.760324,19.3442561 256.181356,19.6604692 C256.602387,19.9766823 256.958254,20.3204962 257.248967,20.6919211 L255.775363,22.7096519 Z M266.165219,18.3128057 L265.112645,26.9559211 C265.002374,27.8694257 264.836971,28.7804069 264.616431,29.6888923 C264.39589,30.5973776 264.140268,31.5284356 263.849555,32.4820942 L260.812126,32.4820942 C260.792077,32.1006307 260.774534,31.7241922 260.759497,31.3527673 C260.744461,30.9813423 260.736942,30.609923 260.736942,30.238498 C260.736942,29.6863799 260.751979,29.1392892 260.782053,28.5972096 C260.812126,28.0551299 260.862248,27.5080392 260.93242,26.9559211 L261.984995,18.3128057 L266.165219,18.3128057 Z M259.248301,37.8878057 C259.248301,37.5264193 259.315966,37.1901342 259.451298,36.8789403 C259.586629,36.5677465 259.772081,36.2967107 260.007659,36.0658249 C260.243236,35.8349392 260.521413,35.6517391 260.8422,35.5162192 C261.162986,35.3806993 261.513841,35.3129403 261.894774,35.3129403 C262.265683,35.3129403 262.611526,35.3806993 262.932312,35.5162192 C263.253098,35.6517391 263.533782,35.8349392 263.774371,36.0658249 C264.014961,36.2967107 264.202919,36.5677465 264.33825,36.8789403 C264.473582,37.1901342 264.541247,37.5264193 264.541247,37.8878057 C264.541247,38.2491921 264.473582,38.5879868 264.33825,38.9041999 C264.202919,39.2204131 264.014961,39.4939584 263.774371,39.7248442 C263.533782,39.9557299 263.253098,40.1364204 262.932312,40.2669211 C262.611526,40.3974218 262.265683,40.4626711 261.894774,40.4626711 C261.513841,40.4626711 261.162986,40.3974218 260.8422,40.2669211 C260.521413,40.1364204 260.243236,39.9557299 260.007659,39.7248442 C259.772081,39.4939584 259.586629,39.2204131 259.451298,38.9041999 C259.315966,38.5879868 259.248301,38.2491921 259.248301,37.8878057 L259.248301,37.8878057 Z" id="ALAMO-ALERTS!" fill="#000000"></path>
            </g>
        </g>
    </g>
</svg>